<?xml version="1.0" encoding="utf-8"?>
<!-- Generator: Adobe Illustrator 20.1.0, SVG Export Plug-In . SVG Version: 6.00 Build 0)  -->
<!DOCTYPE svg PUBLIC "-//W3C//DTD SVG 1.1//EN" "http://www.w3.org/Graphics/SVG/1.1/DTD/svg11.dtd">
<svg version="1.1" id="Layer_1" xmlns="http://www.w3.org/2000/svg" xmlns:xlink="http://www.w3.org/1999/xlink" x="0px" y="0px"
	 viewBox="0 0 200 86.6" enable-background="new 0 0 200 86.6" xml:space="preserve">
<g>
	<g>
		<path d="M25.4,40.8c-0.8,0-1.1,0.4-1.1,1.1l-1.8,21.9L24.3,85c0,0.7,0.4,1.1,1.1,1.1c0.7,0,1.1-0.4,1.2-1.1l2-21.2l-2-21.9
			C26.5,41.2,26.1,40.8,25.4,40.8z M42.5,29.7c-0.3-0.3-0.6-0.5-1-0.5c-0.9,0-1.4,0.5-1.6,1.6l-1.6,33l1.6,21.4
			c0.1,1,0.6,1.6,1.6,1.6c0.4,0,0.8-0.2,1-0.5c0.3-0.3,0.4-0.7,0.4-1.1l1.8-21.4l-1.8-33C43,30.4,42.8,30.1,42.5,29.7z M50.6,22.2
			c-0.3-0.3-0.7-0.5-1.2-0.5c-1,0-1.6,0.6-1.7,1.6L46.4,64l1.4,21.2c0.1,1.1,0.7,1.6,1.7,1.6c0.5,0,0.9-0.2,1.2-0.5s0.5-0.7,0.5-1.2
			L52.8,64l-1.6-40.6C51.1,22.9,51,22.5,50.6,22.2z M33.4,42.2c-0.3,0-0.7,0.1-0.9,0.4c-0.3,0.3-0.4,0.6-0.4,0.9l-1.7,20.3l1.7,21.4
			c0,0.4,0.1,0.7,0.4,1c0.3,0.3,0.6,0.4,0.9,0.4c0.8,0,1.3-0.5,1.4-1.4l1.8-21.4l-1.8-20.3C34.7,42.6,34.2,42.2,33.4,42.2z
			 M2.3,51.9c-0.4,0-0.7,0.3-0.8,0.8L0,63.8l1.5,10.9c0.1,0.5,0.4,0.8,0.8,0.8c0.4,0,0.7-0.3,0.8-0.8l1.7-10.9L3,52.7
			C2.9,52.2,2.7,51.9,2.3,51.9z M9.6,45.1c-0.5,0-0.8,0.3-0.8,0.8l-2,18l2,17.5c0,0.6,0.3,0.9,0.8,0.9c0.5,0,0.8-0.3,0.9-0.8
			l2.3-17.6l-2.3-18C10.4,45.3,10.1,45.1,9.6,45.1z M17.5,41.5c-0.6,0-0.9,0.3-1,1l-1.8,21.3l1.8,20.6c0.1,0.6,0.5,0.9,1,0.9
			c0.6,0,1-0.3,1-0.9l2.2-20.6l-2.2-21.3C18.5,41.8,18.2,41.5,17.5,41.5z M93.7,13c0-0.9-0.4-1.6-1.1-2.1c-0.5-0.3-0.9-0.4-1.4-0.4
			s-0.9,0.1-1.4,0.4c-0.8,0.5-1.1,1.2-1.1,2.1l-0.1,0.5l0.4,50.3l1.5,22.1c0.5,0.6,0.6,0.9,1.4,0.9c0.6,0,0.9-0.3,1.4-0.8
			c0.5-0.4,0.6-1,0.6-1.7l-0.1-2.1l1-18.3L93.7,13z M84.3,19.4c-0.4-0.5-1-0.7-1.6-0.7c-0.6,0-1.2,0.2-1.7,0.7
			c-0.5,0.5-0.7,1-0.8,1.7l-1,42.7l1,20.5c0.1,0.6,0.3,1.2,0.8,1.6c0.5,0.5,1,0.7,1.7,0.7c0.6,0,1.2-0.2,1.6-0.7
			c0.5-0.5,0.7-1,0.7-1.6l1.2-20.5l-1.2-42.7C85,20.5,84.8,19.9,84.3,19.4z M101.1,6.2c-0.4-0.3-0.6-0.4-1.1-0.4
			c-0.6,0-0.8,0.2-1.3,0.6l-2.1,57.6L96.3,74l0.5,9.9c0.1,0.7,0.3,1.4,0.9,1.9c0.5,0.5,1.2,0.8,1.9,0.8c0.8,0,1.4-0.3,1.9-0.8
			c0.5-0.5,0.8-1.2,0.8-1.9l1.2-20.1l-1.1-55.5C102.3,7.4,101.9,6.6,101.1,6.2z M192.8,44.8c-4.8-4.8-10.6-7.2-17.3-7.2
			c-3.3,0-6.4,0.6-9.5,1.9c-1-11.1-5.5-20.5-13.8-28.1C143.9,3.8,134.3,0,123,0c-5.6,0-10.4,1-15.3,2.9c-1.6,0.6-1.7,1.5-1.7,2.9v78
			c0,0.7-0.5,1.3,0,1.9c0.5,0.5,0.4,0.9,1.1,0.9h68.2c6.8,0,12.6-2.3,17.4-7.1c4.8-4.8,7.2-10.5,7.2-17.3
			C200,55.4,197.6,49.6,192.8,44.8z M67.4,16.9c-0.4-0.4-0.9-0.6-1.4-0.6c-0.5,0-1,0.2-1.4,0.6c-0.4,0.4-0.6,0.9-0.6,1.5l-1.2,45.4
			L64,84.7c0.1,0.6,0.3,1.1,0.7,1.4c0.4,0.4,0.8,0.6,1.3,0.6c1.3,0,2-0.7,2.1-2l1.4-20.9l-1.4-45.4C68,17.8,67.8,17.3,67.4,16.9z
			 M75.8,18c-0.4-0.4-0.9-0.6-1.5-0.6c-0.6,0-1.1,0.2-1.5,0.6c-0.4,0.4-0.6,0.9-0.6,1.6l-1.2,44.3l1.2,20.7c0.1,0.6,0.3,1.2,0.7,1.6
			c0.4,0.4,0.9,0.6,1.5,0.6c0.6,0,1.1-0.2,1.5-0.6c0.4-0.4,0.7-0.9,0.7-1.5l1.3-20.7l-1.3-44.3C76.5,18.9,76.3,18.4,75.8,18z
			 M59,18.5c-0.3-0.4-0.8-0.6-1.3-0.6c-0.5,0-0.9,0.2-1.3,0.6c-0.4,0.4-0.6,0.8-0.6,1.3l-1.4,43.9l1.4,21c0.1,1.2,0.7,1.8,1.8,1.8
			c1.2,0,1.8-0.6,1.9-1.8l1.6-21l-1.6-43.9C59.6,19.4,59.4,18.9,59,18.5z"/>
	</g>
</g>
</svg>
